<svg xmlns="http://www.w3.org/2000/svg" version="1.1" xmlns:xlink="http://www.w3.org/1999/xlink" xmlns:svgjs="http://svgjs.dev/svgjs" width="1000" height="623" viewBox="0 0 1000 623"><g transform="matrix(1,0,0,1,-0.6060606060606233,0.2522267206477409)"><svg viewBox="0 0 396 247" data-background-color="#4aaffd" preserveAspectRatio="xMidYMid meet" height="623" width="1000" xmlns="http://www.w3.org/2000/svg" xmlns:xlink="http://www.w3.org/1999/xlink"><g id="tight-bounds" transform="matrix(1,0,0,1,0.2400000000000091,-0.09999999999999432)"><svg viewBox="0 0 395.52 247.2" height="247.2" width="395.52"><g><svg></svg></g><g><svg viewBox="0 0 395.52 247.2" height="247.2" width="395.52"><g><path xmlns="http://www.w3.org/2000/svg" d="M55.039 247.2l26.403-45.732 232.636 0 26.403 45.732zM197.76 0l26.403 45.732-52.806 0z" fill="#000000" fill-rule="nonzero" stroke="none" stroke-width="1" stroke-linecap="butt" stroke-linejoin="miter" stroke-miterlimit="10" stroke-dasharray="" stroke-dashoffset="0" font-family="none" font-weight="none" font-size="none" text-anchor="none" style="mix-blend-mode: normal" data-fill-palette-color="tertiary"></path></g><g transform="matrix(1,0,0,1,6.487233614509506,67.97999999999999)"><svg viewBox="0 0 382.54553277098097 111.24" height="111.24" width="382.54553277098097"><g><svg viewBox="0 0 582.2216926778117 169.3036136753256" height="111.24" width="382.54553277098097"><g transform="matrix(1,0,0,1,0,47.803336424562694)"><svg viewBox="0 0 395.52 73.69694082620022" height="73.69694082620022" width="395.52"><g id="textblocktransform"><svg viewBox="0 0 395.52 73.69694082620022" height="73.69694082620022" width="395.52" id="textblock"><g><svg viewBox="0 0 395.52 73.69694082620022" height="73.69694082620022" width="395.52"><g transform="matrix(1,0,0,1,0,0)"><svg width="395.52" viewBox="1.5499999523162842 -37.150001525878906 201.50999450683594 37.55000305175781" height="73.69694082620022" data-palette-color="#001f3f"><path d="M28.5-8.53L28.5-8.53Q29.05-8.53 29.45-8.1L29.45-8.1 32.1-5.23Q29.9-2.5 26.69-1.05 23.48 0.4 18.98 0.4L18.98 0.4Q14.95 0.4 11.74-0.98 8.53-2.35 6.25-4.8 3.98-7.25 2.76-10.65 1.55-14.05 1.55-18.07L1.55-18.07Q1.55-22.15 2.9-25.54 4.25-28.93 6.7-31.38 9.15-33.83 12.56-35.19 15.98-36.55 20.1-36.55L20.1-36.55Q24.13-36.55 27.14-35.26 30.15-33.98 32.3-31.85L32.3-31.85 30.05-28.73Q29.85-28.43 29.54-28.2 29.23-27.98 28.68-27.98L28.68-27.98Q28.1-27.98 27.5-28.43 26.9-28.88 25.98-29.4 25.05-29.93 23.64-30.38 22.23-30.83 20.05-30.83L20.05-30.83Q17.5-30.83 15.36-29.94 13.23-29.05 11.69-27.4 10.15-25.75 9.29-23.39 8.43-21.03 8.43-18.07L8.43-18.07Q8.43-15.03 9.29-12.65 10.15-10.28 11.63-8.65 13.1-7.03 15.1-6.16 17.1-5.3 19.4-5.3L19.4-5.3Q20.78-5.3 21.89-5.45 23-5.6 23.94-5.93 24.88-6.25 25.71-6.76 26.55-7.28 27.38-8.03L27.38-8.03Q27.63-8.25 27.9-8.39 28.18-8.53 28.5-8.53ZM47.77-26.05L47.77-26.05Q50.65-26.05 52.98-25.13 55.32-24.2 56.97-22.5 58.62-20.8 59.52-18.35 60.42-15.9 60.42-12.88L60.42-12.88Q60.42-9.83 59.52-7.38 58.62-4.93 56.97-3.2 55.32-1.48 52.98-0.55 50.65 0.38 47.77 0.38L47.77 0.38Q44.9 0.38 42.55-0.55 40.2-1.48 38.54-3.2 36.87-4.93 35.96-7.38 35.05-9.83 35.05-12.88L35.05-12.88Q35.05-15.9 35.96-18.35 36.87-20.8 38.54-22.5 40.2-24.2 42.55-25.13 44.9-26.05 47.77-26.05ZM47.77-4.38L47.77-4.38Q50.97-4.38 52.51-6.53 54.05-8.68 54.05-12.83L54.05-12.83Q54.05-16.98 52.51-19.15 50.97-21.33 47.77-21.33L47.77-21.33Q44.52-21.33 42.97-19.14 41.42-16.95 41.42-12.83L41.42-12.83Q41.42-8.7 42.97-6.54 44.52-4.38 47.77-4.38ZM87.07 0L83.3 0Q82.1 0 81.72-1.13L81.72-1.13 81.22-3.6Q80.42-2.7 79.55-1.98 78.67-1.25 77.66-0.73 76.65-0.2 75.48 0.09 74.32 0.38 72.97 0.38L72.97 0.38Q70.87 0.38 69.12-0.5 67.37-1.38 66.11-3.04 64.85-4.7 64.16-7.15 63.47-9.6 63.47-12.75L63.47-12.75Q63.47-15.6 64.25-18.05 65.02-20.5 66.47-22.3 67.92-24.1 69.95-25.11 71.97-26.13 74.5-26.13L74.5-26.13Q76.65-26.13 78.17-25.44 79.7-24.75 80.9-23.6L80.9-23.6 80.9-37.15 87.07-37.15 87.07 0ZM75.07-4.53L75.07-4.53Q77-4.53 78.35-5.33 79.7-6.13 80.9-7.6L80.9-7.6 80.9-19.1Q79.85-20.38 78.61-20.9 77.37-21.43 75.95-21.43L75.95-21.43Q74.55-21.43 73.41-20.9 72.27-20.38 71.48-19.31 70.7-18.25 70.27-16.61 69.85-14.98 69.85-12.75L69.85-12.75Q69.85-10.5 70.21-8.94 70.57-7.38 71.25-6.39 71.92-5.4 72.9-4.96 73.87-4.53 75.07-4.53ZM104.34-26.05L104.34-26.05Q106.77-26.05 108.81-25.28 110.84-24.5 112.32-23.01 113.79-21.53 114.62-19.36 115.44-17.2 115.44-14.43L115.44-14.43Q115.44-13.73 115.38-13.26 115.32-12.8 115.16-12.54 114.99-12.28 114.72-12.16 114.44-12.05 114.02-12.05L114.02-12.05 98.17-12.05Q98.44-8.1 100.29-6.25 102.14-4.4 105.19-4.4L105.19-4.4Q106.69-4.4 107.78-4.75 108.87-5.1 109.68-5.53 110.49-5.95 111.11-6.3 111.72-6.65 112.29-6.65L112.29-6.65Q112.67-6.65 112.94-6.5 113.22-6.35 113.42-6.08L113.42-6.08 115.22-3.83Q114.19-2.63 112.92-1.81 111.64-1 110.26-0.51 108.87-0.03 107.43 0.18 105.99 0.38 104.64 0.38L104.64 0.38Q101.97 0.38 99.67-0.51 97.37-1.4 95.67-3.14 93.97-4.88 92.99-7.44 92.02-10 92.02-13.38L92.02-13.38Q92.02-16 92.87-18.31 93.72-20.63 95.31-22.34 96.89-24.05 99.18-25.05 101.47-26.05 104.34-26.05ZM104.47-21.63L104.47-21.63Q101.77-21.63 100.24-20.1 98.72-18.57 98.29-15.78L98.29-15.78 109.89-15.78Q109.89-16.98 109.57-18.04 109.24-19.1 108.57-19.9 107.89-20.7 106.87-21.16 105.84-21.63 104.47-21.63ZM134.47 0L120.82 0 120.82-36.15 133.29-36.15Q136.84-36.15 139.35-35.48 141.87-34.8 143.48-33.55 145.09-32.3 145.84-30.53 146.59-28.75 146.59-26.53L146.59-26.53Q146.59-25.25 146.22-24.09 145.84-22.93 145.05-21.91 144.27-20.9 143.05-20.08 141.84-19.25 140.17-18.68L140.17-18.68Q147.62-17 147.62-10.63L147.62-10.63Q147.62-8.33 146.74-6.38 145.87-4.42 144.19-3.01 142.52-1.6 140.07-0.8 137.62 0 134.47 0L134.47 0ZM134.34-15.85L127.54-15.85 127.54-5.25 134.37-5.25Q136.24-5.25 137.5-5.7 138.77-6.15 139.53-6.9 140.29-7.65 140.63-8.65 140.97-9.65 140.97-10.78L140.97-10.78Q140.97-11.95 140.59-12.89 140.22-13.83 139.42-14.49 138.62-15.15 137.37-15.5 136.12-15.85 134.34-15.85L134.34-15.85ZM127.54-30.95L127.54-20.5 132.92-20.5Q136.34-20.5 138.12-21.75 139.89-23 139.89-25.73L139.89-25.73Q139.89-28.55 138.29-29.75 136.69-30.95 133.29-30.95L133.29-30.95 127.54-30.95ZM163.99-26.05L163.99-26.05Q166.86-26.05 169.2-25.13 171.54-24.2 173.19-22.5 174.84-20.8 175.74-18.35 176.64-15.9 176.64-12.88L176.64-12.88Q176.64-9.83 175.74-7.38 174.84-4.93 173.19-3.2 171.54-1.48 169.2-0.55 166.86 0.38 163.99 0.38L163.99 0.38Q161.11 0.38 158.76-0.55 156.41-1.48 154.75-3.2 153.09-4.93 152.18-7.38 151.26-9.83 151.26-12.88L151.26-12.88Q151.26-15.9 152.18-18.35 153.09-20.8 154.75-22.5 156.41-24.2 158.76-25.13 161.11-26.05 163.99-26.05ZM163.99-4.38L163.99-4.38Q167.19-4.38 168.73-6.53 170.26-8.68 170.26-12.83L170.26-12.83Q170.26-16.98 168.73-19.15 167.19-21.33 163.99-21.33L163.99-21.33Q160.74-21.33 159.19-19.14 157.64-16.95 157.64-12.83L157.64-12.83Q157.64-8.7 159.19-6.54 160.74-4.38 163.99-4.38ZM177.26 0L186.04-13.23 177.61-25.65 183.56-25.65Q184.24-25.65 184.56-25.46 184.89-25.28 185.14-24.85L185.14-24.85 190.51-16.28Q190.64-16.7 190.82-17.13 191.01-17.55 191.29-17.98L191.29-17.98 195.61-24.73Q195.91-25.2 196.24-25.43 196.56-25.65 197.04-25.65L197.04-25.65 202.71-25.65 194.26-13.5 203.06 0 197.11 0Q196.44 0 196.02-0.35 195.61-0.7 195.34-1.15L195.34-1.15 189.89-10.08Q189.66-9.18 189.26-8.58L189.26-8.58 184.46-1.15Q184.19-0.73 183.79-0.36 183.39 0 182.79 0L182.79 0 177.26 0Z" opacity="1" transform="matrix(1,0,0,1,0,0)" fill="#000000" class="wordmark-text-0" data-fill-palette-color="primary" id="text-0"></path></svg></g></svg></g></svg></g></svg></g><g transform="matrix(1,0,0,1,412.918079002486,0)"><svg viewBox="0 0 169.3036136753256 169.3036136753256" height="169.3036136753256" width="169.3036136753256"><g><svg></svg></g><g id="icon-0"><svg viewBox="0 0 169.3036136753256 169.3036136753256" height="169.3036136753256" width="169.3036136753256"><g><rect width="153.94087836034237" height="153.94087836034237" x="7.68136765749162" y="7.68136765749162" fill="#000000" data-fill-palette-color="accent"></rect><rect width="153.94087836034237" height="153.94087836034237" x="-4.440892098500626e-15" y="-4.440892098500626e-15" fill="#000000" opacity="0.5" data-fill-palette-color="accent"></rect></g><g transform="matrix(1,0,0,1,21.94676473569035,39.50372529143299)"><svg viewBox="0 0 125.4100842039449 90.29616309245962" height="90.29616309245962" width="125.4100842039449"><g><svg xmlns="http://www.w3.org/2000/svg" xmlns:xlink="http://www.w3.org/1999/xlink" version="1.1" x="0" y="0" viewBox="0 15 99.9990005493164 72" enable-background="new 0 0 100 100" xml:space="preserve" height="90.29616309245962" width="125.4100842039449" class="icon-s-0" data-fill-palette-color="background" id="s-0"><g fill="#4aaffd" data-fill-palette-color="background"><polygon fill="#4aaffd" points="33,67.685 45,72.534 45,69.429 38.065,66.551 45,63.583 45,60.501 33,65.35  " data-fill-palette-color="background"></polygon><polygon fill="#4aaffd" points="45.892,73.713 48.452,74.55 55.455,56.988 52.895,56.104  " data-fill-palette-color="background"></polygon><polygon fill="#4aaffd" points="57,63.583 63.934,66.551 57,69.429 57,72.534 69,67.685 69,65.35 57,60.501  " data-fill-palette-color="background"></polygon><path fill="#4aaffd" d="M19.766 35h-2.493l-0.657 4h-1.768l0.656-4h-2.516l-0.657 4H10v2h2.038l-0.34 3H10v2h1.38l-0.656 4h2.493l0.657-4h1.79l-0.657 4H17.5l0.68-4H20v-2h-1.525l0.317-3H21v-2h-1.869L19.766 35zM15.981 44h-1.768l0.295-3h1.791L15.981 44z" data-fill-palette-color="background"></path><path fill="#4aaffd" d="M96.223 15H3.777C1.691 15 0 16.691 0 18.777v64.445C0 85.309 1.691 87 3.777 87h92.445c2.086 0 3.777-1.691 3.777-3.777V18.777C100 16.691 98.309 15 96.223 15zM23.048 19.544c1.368 0 2.479 1.11 2.479 2.479 0 1.369-1.111 2.479-2.479 2.479s-2.479-1.109-2.479-2.479C20.569 20.654 21.68 19.544 23.048 19.544zM15.494 19.544c1.369 0 2.479 1.11 2.479 2.479 0 1.369-1.11 2.479-2.479 2.479-1.368 0-2.479-1.109-2.479-2.479C13.015 20.654 14.126 19.544 15.494 19.544zM7.94 19.544c1.368 0 2.479 1.11 2.479 2.479 0 1.369-1.11 2.479-2.479 2.479s-2.479-1.109-2.479-2.479C5.461 20.654 6.572 19.544 7.94 19.544zM94 76.059C94 78.235 92.235 80 90.058 80H7.942C5.765 80 4 78.235 4 76.059V32.941C4 30.765 5.765 29 7.942 29h82.115C92.235 29 94 30.765 94 32.941V76.059z" data-fill-palette-color="background"></path><path fill="#4aaffd" d="M75.367 36.812C74.879 37.341 75 38.073 75 38.972v3.391c0 0.278-0.404 0.509-0.484 0.694-0.08 0.186-0.473 0.327-0.599 0.427-0.125 0.099-0.275 0.168-0.434 0.208C73.324 43.731 73 43.75 73 43.75v2.182c0 0 0.342 0.02 0.499 0.06 0.159 0.04 0.372 0.112 0.499 0.218 0.125 0.106 0.463 0.255 0.542 0.447C74.618 46.848 75 47.096 75 47.4v3.311c0 0.899-0.121 1.29 0.367 1.818C75.857 53.058 76.151 53 76.984 53H80v-2h-1.377c-0.383 0-0.487 0.156-0.599-0.094C77.911 50.654 78 50.664 78 50.375v-3.233c0-0.437-0.24-0.796-0.371-1.081s-0.35-0.512-0.541-0.685c-0.191-0.171-0.328-0.297-0.54-0.376C76.336 44.921 76 44.875 76 44.861v-0.039c0-0.014 0.256-0.066 0.465-0.159 0.214-0.093 0.414-0.225 0.605-0.397 0.192-0.171 0.501-0.393 0.632-0.665C77.834 43.331 78 43.004 78 42.621v-3.312c0-0.29-0.089-0.621 0.024-0.872C78.136 38.186 78.24 38 78.623 38H80v-2h-3.016C76.151 36 75.857 36.283 75.367 36.812z" data-fill-palette-color="background"></path><path fill="#4aaffd" d="M89.083 43.484c-0.126-0.1-0.519-0.241-0.599-0.427C88.404 42.872 88 42.641 88 42.363v-3.391c0-0.899 0.121-1.631-0.367-2.161C87.143 36.283 86.849 36 86.016 36H83v2h1.377c0.383 0 0.487 0.186 0.599 0.437C85.089 38.688 85 39.019 85 39.309v3.312c0 0.384 0.166 0.71 0.298 0.981 0.131 0.271 0.439 0.493 0.632 0.665 0.191 0.172 0.392 0.304 0.605 0.397C86.744 44.756 87 44.809 87 44.822v0.039c0 0.014-0.336 0.06-0.548 0.139-0.212 0.08-0.349 0.205-0.54 0.377s-0.41 0.4-0.541 0.685S85 46.705 85 47.143v3.232c0 0.289 0.089 0.279-0.024 0.531C84.864 51.156 84.76 51 84.377 51H83v2h3.016c0.833 0 1.127 0.058 1.617-0.471C88.121 52.001 88 51.61 88 50.711V47.4c0-0.305 0.382-0.553 0.46-0.744 0.079-0.191 0.417-0.34 0.542-0.446 0.127-0.106 0.34-0.179 0.499-0.218C89.658 45.952 90 45.932 90 45.932V43.75c0 0-0.324-0.019-0.483-0.059C89.358 43.652 89.208 43.583 89.083 43.484z" data-fill-palette-color="background"></path></g></svg></g></svg></g></svg></g></svg></g></svg></g></svg></g></svg></g><defs></defs></svg><rect width="395.52" height="247.2" fill="none" stroke="none" visibility="hidden"></rect></g></svg></g></svg>